<?xml version="1.0" encoding="UTF-8"?>
<!DOCTYPE svg PUBLIC "-//W3C//DTD SVG 1.1//EN" "http://www.w3.org/Graphics/SVG/1.1/DTD/svg11.dtd">
<svg version="1.1" xmlns="http://www.w3.org/2000/svg" xmlns:xlink="http://www.w3.org/1999/xlink" x="0" y="0" width="521.55" height="369.301" viewBox="0, 0, 521.55, 369.301">
  <g id="Layer_1" transform="translate(-170.667, -74.333)">
    <path d="M194.235,74.333 L375.152,74.333 L375.152,160.667 L194.235,160.667 z" fill="#FFBB50" fill-opacity="0.75"/>
    <path d="M380.818,74.333 L671.818,74.333 L671.818,160.667 L380.818,160.667 z" fill="#A3D5A1" fill-opacity="0.75"/>
    <g>
      <path d="M201.652,108.442 L365.152,108.442 L365.152,155.442 L201.652,155.442 z" fill="#FFFFFF"/>
      <path d="M202.152,108.942 L365.652,108.942 L365.652,155.942 L202.152,155.942 z" fill-opacity="0" stroke="#000000" stroke-width="3"/>
    </g>
    <path d="M190.485,98.833 L674.485,98.833 L674.485,165.833 L190.485,165.833 z" fill-opacity="0" stroke="#000000" stroke-width="1"/>
    <text transform="matrix(1, 0, 0, 1, 284.693, 86.333)">
      <tspan x="-24" y="6" font-family="monospace" font-size="20" fill="#000000">root</tspan>
    </text>
    <text transform="matrix(1, 0, 0, 1, 526.318, 86.333)">
      <tspan x="-24" y="6" font-family="monospace" font-size="20" fill="#000000">tail</tspan>
    </text>
    <g>
      <path d="M207.493,112.333 L246.493,112.333 L246.493,151.333 L207.493,151.333 z" fill="#FFFFFF"/>
      <path d="M207.993,112.833 L246.993,112.833 L246.993,151.833 L207.993,151.833 z" fill-opacity="0" stroke="#000000" stroke-width="1"/>
    </g>
    <path d="M226.493,136.333 C224.284,136.333 222.493,134.542 222.493,132.333 C222.493,130.124 224.284,128.333 226.493,128.333 C228.702,128.333 230.493,130.124 230.493,132.333 C230.493,134.542 228.702,136.333 226.493,136.333 z" fill="#000000"/>
    <g>
      <g>
        <path d="M196.226,238.312 L373.333,238.312 L373.333,269.902 L196.226,269.902 z" fill="#FFFFFF"/>
        <path d="M196.726,238.812 L373.833,238.812 L373.833,270.402 L196.726,270.402 z" fill-opacity="0" stroke="#000000" stroke-width="2.016"/>
      </g>
      <g>
        <path d="M200.931,241 L227.144,241 L227.144,267.214 L200.931,267.214 z" fill="#FFBB50" fill-opacity="0.75"/>
        <path d="M201.431,241.5 L227.644,241.5 L227.644,267.714 L201.431,267.714 z" fill-opacity="0" stroke="#000000" stroke-width="0.672"/>
      </g>
      <g>
        <path d="M231.177,241 L257.39,241 L257.39,267.214 L231.177,267.214 z" fill="#FFBB50" fill-opacity="0.75"/>
        <path d="M231.677,241.5 L257.89,241.5 L257.89,267.714 L231.677,267.714 z" fill-opacity="0" stroke="#000000" stroke-width="0.672"/>
      </g>
      <g>
        <path d="M261.423,241 L287.636,241 L287.636,267.214 L261.423,267.214 z" fill="#FFBB50" fill-opacity="0.75"/>
        <path d="M261.923,241.5 L288.136,241.5 L288.136,267.714 L261.923,267.714 z" fill-opacity="0" stroke="#000000" stroke-width="0.672"/>
      </g>
      <g>
        <path d="M343.871,241 L370.084,241 L370.084,267.214 L343.871,267.214 z" fill="#FFBB50" fill-opacity="0.75"/>
        <path d="M344.371,241.5 L370.584,241.5 L370.584,267.714 L344.371,267.714 z" fill-opacity="0" stroke="#000000" stroke-width="0.672"/>
      </g>
      <g>
        <path d="M315.642,241 L341.855,241 L341.855,267.214 L315.642,267.214 z" fill="#FFBB50" fill-opacity="0.75"/>
        <path d="M316.142,241.5 L342.355,241.5 L342.355,267.714 L316.142,267.714 z" fill-opacity="0" stroke="#000000" stroke-width="0.672"/>
      </g>
      <text transform="matrix(1, 0, 0, 1, 302.424, 256.901)">
        <tspan x="-12.599" y="4" font-family="monospace" font-size="13.443" fill="#000000">...</tspan>
      </text>
      <text transform="matrix(1, 0, 0, 1, 214.038, 254.213)">
        <tspan x="-4.533" y="4" font-family="monospace" font-size="13.443" fill="#000000">0</tspan>
      </text>
      <text transform="matrix(1, 0, 0, 1, 244.284, 254.213)">
        <tspan x="-4.533" y="4" font-family="monospace" font-size="13.443" fill="#000000">1</tspan>
      </text>
      <text transform="matrix(1, 0, 0, 1, 274.53, 253.541)">
        <tspan x="-4.533" y="4" font-family="monospace" font-size="13.443" fill="#000000">2</tspan>
      </text>
      <text transform="matrix(1, 0, 0, 1, 356.978, 254.213)">
        <tspan x="-8.566" y="4" font-family="monospace" font-size="13.443" fill="#000000">31</tspan>
      </text>
      <text transform="matrix(1, 0, 0, 1, 328.748, 254.213)">
        <tspan x="-8.566" y="4" font-family="monospace" font-size="13.443" fill="#000000">30</tspan>
      </text>
    </g>
    <g>
      <path d="M227.826,132 L207.493,238.312" fill="#000000"/>
      <path d="M228.326,132.5 L207.993,238.812" fill-opacity="0" stroke="#000000" stroke-width="1"/>
    </g>
    <path d="M202.349,351.134 L383.265,351.134 L383.265,437.468 L202.349,437.468 z" fill="#FFBB50" fill-opacity="0.75"/>
    <path d="M388.932,351.134 L679.932,351.134 L679.932,437.468 L388.932,437.468 z" fill="#A3D5A1" fill-opacity="0.75"/>
    <g>
      <path d="M209.765,385.243 L373.265,385.243 L373.265,432.243 L209.765,432.243 z" fill="#FFFFFF"/>
      <path d="M210.265,385.743 L373.765,385.743 L373.765,432.743 L210.265,432.743 z" fill-opacity="0" stroke="#000000" stroke-width="3"/>
    </g>
    <path d="M198.599,376.134 L682.599,376.134 L682.599,443.134 L198.599,443.134 z" fill-opacity="0" stroke="#000000" stroke-width="1"/>
    <text transform="matrix(1, 0, 0, 1, 292.807, 363.134)">
      <tspan x="-24" y="6" font-family="monospace" font-size="20" fill="#000000">root</tspan>
    </text>
    <text transform="matrix(1, 0, 0, 1, 534.432, 363.134)">
      <tspan x="-24" y="6" font-family="monospace" font-size="20" fill="#000000">tail</tspan>
    </text>
    <g>
      <path d="M215.606,389.634 L254.606,389.634 L254.606,428.634 L215.606,428.634 z" fill="#FFFFFF"/>
      <path d="M216.106,390.134 L255.106,390.134 L255.106,429.134 L216.106,429.134 z" fill-opacity="0" stroke="#000000" stroke-width="1"/>
    </g>
    <path d="M234.606,413.134 C232.397,413.134 230.606,411.343 230.606,409.134 C230.606,406.925 232.397,405.134 234.606,405.134 C236.815,405.134 238.606,406.925 238.606,409.134 C238.606,411.343 236.815,413.134 234.606,413.134 z" fill="#000000"/>
    <g>
      <path d="M235.939,408.801 L207.493,271.119" fill="#000000"/>
      <path d="M236.439,409.301 L207.993,271.619" fill-opacity="0" stroke="#000000" stroke-width="1"/>
    </g>
    <g>
      <path d="M394.879,383.743 L449.68,383.743 L449.68,433.526 L394.879,433.526 z" fill="#FFFFFF"/>
      <path d="M395.379,384.243 L450.18,384.243 L450.18,434.026 L395.379,434.026 z" fill-opacity="0" stroke="#000000" stroke-width="3.177"/>
    </g>
    <g>
      <path d="M260.773,389.634 L299.773,389.634 L299.773,428.634 L260.773,428.634 z" fill="#FFFFFF"/>
      <path d="M261.273,390.134 L300.273,390.134 L300.273,429.134 L261.273,429.134 z" fill-opacity="0" stroke="#000000" stroke-width="1"/>
    </g>
    <path d="M279.773,413.134 C277.564,413.134 275.773,411.343 275.773,409.134 C275.773,406.925 277.564,405.134 279.773,405.134 C281.982,405.134 283.773,406.925 283.773,409.134 C283.773,411.343 281.982,413.134 279.773,413.134 z" fill="#000000"/>
    <g>
      <path d="M281.106,408.801 L418.449,279" fill="#000000"/>
      <path d="M281.606,409.301 L418.949,279.5" fill-opacity="0" stroke="#000000" stroke-width="1"/>
    </g>
    <g>
      <path d="M408.111,229.216 L687.217,229.216 L687.217,279 L408.111,279 z" fill="#FFFFFF"/>
      <path d="M408.611,229.716 L687.717,229.716 L687.717,279.5 L408.611,279.5 z" fill-opacity="0" stroke="#000000" stroke-width="3.177"/>
    </g>
    <g>
      <g>
        <path d="M416.026,233.953 L457.336,233.953 L457.336,275.262 L416.026,275.262 z" fill="#A3D5A1" fill-opacity="0.75"/>
        <path d="M416.026,233.953 L457.336,233.953 L457.336,275.262 L416.026,275.262 z" fill-opacity="0" stroke="#000000" stroke-width="1"/>
      </g>
      <g>
        <path d="M416.026,233.953 L457.336,233.953 L457.336,275.262 L416.026,275.262 z" fill="#A3D5A1" fill-opacity="0.75"/>
        <path d="M416.026,233.953 L457.336,233.953 L457.336,275.262 L416.026,275.262 z" fill-opacity="0" stroke="#000000" stroke-width="1"/>
      </g>
    </g>
    <g>
      <g>
        <path d="M463.692,233.953 L505.001,233.953 L505.001,275.262 L463.692,275.262 z" fill="#A3D5A1" fill-opacity="0.75"/>
        <path d="M463.692,233.953 L505.001,233.953 L505.001,275.262 L463.692,275.262 z" fill-opacity="0" stroke="#000000" stroke-width="1"/>
      </g>
      <g>
        <path d="M463.692,233.953 L505.001,233.953 L505.001,275.262 L463.692,275.262 z" fill="#A3D5A1" fill-opacity="0.75"/>
        <path d="M463.692,233.953 L505.001,233.953 L505.001,275.262 L463.692,275.262 z" fill-opacity="0" stroke="#000000" stroke-width="1"/>
      </g>
    </g>
    <g>
      <g>
        <path d="M511.357,233.953 L552.666,233.953 L552.666,275.262 L511.357,275.262 z" fill="#A3D5A1" fill-opacity="0.75"/>
        <path d="M511.357,233.953 L552.666,233.953 L552.666,275.262 L511.357,275.262 z" fill-opacity="0" stroke="#000000" stroke-width="1"/>
      </g>
      <g>
        <path d="M511.357,233.953 L552.666,233.953 L552.666,275.262 L511.357,275.262 z" fill="#A3D5A1" fill-opacity="0.75"/>
        <path d="M511.357,233.953 L552.666,233.953 L552.666,275.262 L511.357,275.262 z" fill-opacity="0" stroke="#000000" stroke-width="1"/>
      </g>
    </g>
    <g>
      <g>
        <path d="M641.289,233.953 L682.599,233.953 L682.599,275.262 L641.289,275.262 z" fill="#A3D5A1" fill-opacity="0.75"/>
        <path d="M641.289,233.953 L682.599,233.953 L682.599,275.262 L641.289,275.262 z" fill-opacity="0" stroke="#000000" stroke-width="1"/>
      </g>
      <g>
        <path d="M641.289,233.953 L682.599,233.953 L682.599,275.262 L641.289,275.262 z" fill="#A3D5A1" fill-opacity="0.75"/>
        <path d="M641.289,233.953 L682.599,233.953 L682.599,275.262 L641.289,275.262 z" fill-opacity="0" stroke="#000000" stroke-width="1"/>
      </g>
    </g>
    <g>
      <g>
        <path d="M596.8,233.953 L638.11,233.953 L638.11,275.262 L596.8,275.262 z" fill="#A3D5A1" fill-opacity="0.75"/>
        <path d="M596.8,233.953 L638.11,233.953 L638.11,275.262 L596.8,275.262 z" fill-opacity="0" stroke="#000000" stroke-width="1"/>
      </g>
      <g>
        <path d="M596.8,233.953 L638.11,233.953 L638.11,275.262 L596.8,275.262 z" fill="#A3D5A1" fill-opacity="0.75"/>
        <path d="M596.8,233.953 L638.11,233.953 L638.11,275.262 L596.8,275.262 z" fill-opacity="0" stroke="#000000" stroke-width="1"/>
      </g>
    </g>
    <text transform="matrix(1, 0, 0, 1, 575.472, 258.511)">
      <tspan x="-19.855" y="6.393" font-family="monospace" font-size="21.185" fill="#000000">...</tspan>
    </text>
    <text transform="matrix(1, 0, 0, 1, 436.18, 254.275)">
      <tspan x="-13.499" y="6.393" font-family="monospace" font-size="21.185" fill="#000000">32</tspan>
    </text>
    <text transform="matrix(1, 0, 0, 1, 483.846, 254.275)">
      <tspan x="-13.499" y="6.393" font-family="monospace" font-size="21.185" fill="#000000">33</tspan>
    </text>
    <text transform="matrix(1, 0, 0, 1, 531.511, 253.216)">
      <tspan x="-13.499" y="6.393" font-family="monospace" font-size="21.185" fill="#000000">34</tspan>
    </text>
    <text transform="matrix(1, 0, 0, 1, 661.443, 254.275)">
      <tspan x="-13.499" y="6.393" font-family="monospace" font-size="21.185" fill="#000000">63</tspan>
    </text>
    <text transform="matrix(1, 0, 0, 1, 616.957, 254.275)">
      <tspan x="-13.499" y="6.393" font-family="monospace" font-size="21.185" fill="#000000">62</tspan>
    </text>
    <path d="M524.818,136.333 C522.609,136.333 520.818,134.542 520.818,132.333 C520.818,130.124 522.609,128.333 524.818,128.333 C527.027,128.333 528.818,130.124 528.818,132.333 C528.818,134.542 527.027,136.333 524.818,136.333 z" fill="#000000"/>
    <path d="M525.318,136.833 L418.949,229.716" fill-opacity="0" stroke="#000000" stroke-width="1"/>
    <g>
      <path d="M402.779,389.134 L441.779,389.134 L441.779,428.134 L402.779,428.134 z" fill="#30762E"/>
      <g>
        <path d="M403.279,389.634 L442.279,389.634 L442.279,428.634 L403.279,428.634 z" fill="#30762E"/>
        <path d="M403.279,389.634 L442.279,389.634 L442.279,428.634 L403.279,428.634 z" fill-opacity="0" stroke="#000000" stroke-width="1"/>
      </g>
    </g>
    <text transform="matrix(1, 0, 0, 1, 422.279, 408.134)">
      <tspan x="-12" y="6" font-family="monospace" font-size="20" fill="#FFFFFF">99</tspan>
    </text>
    <text transform="matrix(1, 0, 0, 1, 176.833, 131.833)">
      <tspan x="-6.167" y="6" font-family="monospace" font-size="20" fill="#000000">a</tspan>
    </text>
    <text transform="matrix(1, 0, 0, 1, 183.985, 408.134)">
      <tspan x="-6" y="6" font-family="monospace" font-size="20" fill="#000000">b</tspan>
    </text>
  </g>
</svg>
